<svg id="Layer_1" data-name="Layer 1" xmlns="http://www.w3.org/2000/svg" viewBox="0 0 588.58 214.08"><defs><style>.cls-1{fill:#141313;}.cls-2{fill:#231f20;}.cls-3{fill:#068c45;}</style></defs><path class="cls-1" d="M0,73.91H38.6l3.56,29h1.09c13.14-22.45,32.85-32.3,53.39-32.3,12.59,0,18.34,2.19,26,5.47l-9.3,39.43c-8.22-2.47-14-3.84-23.82-3.84-15.61,0-32.3,8.22-42.43,31.21v67.89H0Z"/><path class="cls-1" d="M149.47,142.35c0-44.89,35-71.72,71.73-71.72,43.25,0,65.15,29.57,65.15,66.25a125,125,0,0,1-1.91,19.71H185.06V125.93h66.8l-6.57,8.21c0-18.07-7.12-27.92-22.45-27.92-18.07,0-27.92,11.5-27.92,36.13,0,25.74,12.59,36.14,37.78,36.14,11,0,20.8-2.74,32.85-8.21l15.33,27.92c-16.43,10.4-37.78,15.88-54.75,15.88C182.87,214.08,149.47,187.8,149.47,142.35Z"/><path class="cls-1" d="M352.05,154.4V56.94H311V20.26h88.15V156c0,15.88,10.95,20.26,20.53,20.26,5.75,0,11.77-1.09,19.71-3.83L449.51,207c-14.78,4.38-24.63,7.12-42.43,7.12C370.67,214.08,352.05,190,352.05,154.4Z"/><path class="cls-1" d="M536.57,110.6h-52V73.91h99.11V210.79H536.57Zm-8.21-82.68C528.36,11.5,541,0,558.47,0s30.11,11.5,30.11,27.92S576,55.3,558.47,55.3,528.36,44.35,528.36,27.92Z"/><path class="cls-2" d="M528.36,27.92C528.36,11.5,541,0,558.47,0s30.11,11.5,30.11,27.92S576,55.3,558.47,55.3,528.36,44.35,528.36,27.92Z"/><path class="cls-3" d="M528.36,27.92C528.36,11.5,541,0,558.47,0s30.11,11.5,30.11,27.92S576,55.3,558.47,55.3,528.36,44.35,528.36,27.92Z"/></svg>