<svg id="Layer_1" data-name="Layer 1" xmlns="http://www.w3.org/2000/svg" viewBox="0 0 1209.86 276.16"><defs><style>.cls-1{fill:#21493c;}.cls-2{fill:#231f20;}</style></defs><path class="cls-1" d="M59.35,149.57l-43.5-60.5H54.6l28.25,41.75,29.5-41.75H147.6l-42.75,60,45.25,65H112.35l-31.75-46-32.25,46H12.85Z"/><path class="cls-2" d="M195.09,127.82h72.75v28.75H195.09Z"/><path class="cls-2" d="M303.34,39.07h51.75v60h1a35.86,35.86,0,0,1,14.13-9.5q8.86-3.5,21.87-3.5,24.75,0,39.63,15.5t14.87,46.75q0,16.76-5,29.63a57.94,57.94,0,0,1-14.12,21.5,60.44,60.44,0,0,1-22.25,13.12,91.06,91.06,0,0,1-29.63,4.5q-19.5,0-32.62-4.5t-20.38-9v-137H303.34Zm79.75,74.5a27.81,27.81,0,0,0-7.75,1.25,37.1,37.1,0,0,0-8.12,3.5A35.21,35.21,0,0,0,360,124a20.24,20.24,0,0,0-4.88,7.62v52a65.09,65.09,0,0,0,11,4,54.16,54.16,0,0,0,15,2,32.82,32.82,0,0,0,12.38-2.37,26.87,26.87,0,0,0,10.25-7.38,36.14,36.14,0,0,0,6.87-12.5,57.13,57.13,0,0,0,2.5-18q0-17.74-7.62-26.75T383.09,113.57Z"/><path class="cls-2" d="M466.34,186.57h31v-70h-31V89.07h56.25l3.75,16.5h1a66,66,0,0,1,16-13.75,39.53,39.53,0,0,1,21-5.5q15,0,23.62,11t8.63,36.75H567.34q0-9-2.63-13.12t-8.37-4.13q-10,0-16.13,5a50.53,50.53,0,0,0-10.37,11.5v53.25h54.25v27.5H466.34Z"/><path class="cls-2" d="M621.34,186.57h44v-70h-44V89.07h76.5v97.5h46.25v27.5H621.34Z"/><path class="cls-2" d="M833.09,39.07h52.25v108a337.66,337.66,0,0,0,2,37,12.4,12.4,0,0,0,.25,2.5h16v27.5H863.34l-3.25-16h-1a27.94,27.94,0,0,1-6.75,8,50.07,50.07,0,0,1-9.5,6.13,49.54,49.54,0,0,1-11.5,4,58.51,58.51,0,0,1-12.5,1.37,64.56,64.56,0,0,1-22.13-3.75,47.92,47.92,0,0,1-18.12-11.62,55.62,55.62,0,0,1-12.25-20q-4.5-12.12-4.5-28.63,0-16,4.87-28.5A60.53,60.53,0,0,1,780.21,104,58.94,58.94,0,0,1,800.59,90.7a69.74,69.74,0,0,1,25.75-4.63A116.64,116.64,0,0,1,841,87a48.8,48.8,0,0,1,11.88,2.87V66.57H833.09Zm-6.75,151a31.12,31.12,0,0,0,16.87-4.62,21.5,21.5,0,0,0,9.63-13.38v-53a24.14,24.14,0,0,0-9.63-4.12,58.43,58.43,0,0,0-12.87-1.38,39.18,39.18,0,0,0-13.13,2.25A29.75,29.75,0,0,0,806,123a34.47,34.47,0,0,0-7.75,12.62q-2.88,7.76-2.87,19,0,16,8,25.75T826.34,190.07Z"/><path class="cls-2" d="M1039.08,214.07q0,13.5-4.62,23.5a46.19,46.19,0,0,1-12.75,16.63,52.8,52.8,0,0,1-19.25,9.75,90.13,90.13,0,0,1-24.38,3.12,98.77,98.77,0,0,1-16.87-1.37,97.18,97.18,0,0,1-14.5-3.63,81.21,81.21,0,0,1-11.63-4.87,46,46,0,0,1-8-5.13l12.5-23A91.3,91.3,0,0,0,954,236.7q8.37,3.62,21.12,3.62,15.75,0,24-7.25t8.25-20.75v-8h-1q-4.5,6-13.25,8.88a65.07,65.07,0,0,1-20.25,2.87,63.21,63.21,0,0,1-22.12-3.75A47.65,47.65,0,0,1,933.08,201a51.37,51.37,0,0,1-11.62-19.38q-4.12-11.74-4.13-27.5,0-16.5,4.88-29.25A58.32,58.32,0,0,1,936,103.45a57.57,57.57,0,0,1,21.25-13,82.33,82.33,0,0,1,27.62-4.38q8,0,16,.63T1016,88.32q7.13,1,13.12,2.38a80.71,80.71,0,0,1,10,2.87Zm-60-24a34.54,34.54,0,0,0,17.13-4.25,21.68,21.68,0,0,0,10.37-12.75V116.82a39.57,39.57,0,0,0-9.87-2.37,90,90,0,0,0-12.13-.88,37.71,37.71,0,0,0-13.12,2.25A27.88,27.88,0,0,0,960.71,123a34,34,0,0,0-7.25,12.25,52.69,52.69,0,0,0-2.63,17.62,52.22,52.22,0,0,0,2.25,16,34.15,34.15,0,0,0,6.25,11.75,26.82,26.82,0,0,0,9,7.13A24.78,24.78,0,0,0,979.08,190.07Z"/><path class="cls-2" d="M1190.08,200.82a44.74,44.74,0,0,1-8.37,5.88,80.91,80.91,0,0,1-12,5.37,92.79,92.79,0,0,1-15.13,4,97.82,97.82,0,0,1-17.5,1.5,84.86,84.86,0,0,1-28.62-4.5,56,56,0,0,1-34.75-33.87,77,77,0,0,1-4.63-27.63q0-16.5,5.25-28.87a57.68,57.68,0,0,1,14.38-20.63,59.93,59.93,0,0,1,21.37-12.37,83.14,83.14,0,0,1,46.13-1.63,53.66,53.66,0,0,1,18.62,8.63,46.33,46.33,0,0,1,13.88,16.37q5.37,10.26,5.37,26a119.48,119.48,0,0,1-2.5,23.25h-90a28.63,28.63,0,0,0,3.38,13.5,26.6,26.6,0,0,0,8.25,9A35.42,35.42,0,0,0,1125,190a59.23,59.23,0,0,0,14.12,1.62q15,0,24.63-3.5a51.84,51.84,0,0,0,15.62-8.5Zm-54-89.25a41,41,0,0,0-12.25,1.79,34.17,34.17,0,0,0-10.37,5.22,28.53,28.53,0,0,0-7.63,8.53,26.31,26.31,0,0,0-3.5,11.46h61.5q0-12.48-6.87-19.74T1136.08,111.57Z"/><path class="cls-1" d="M657.41,43.72c0-13.8,10.58-23.46,25.3-23.46S708,29.92,708,43.72s-10.58,23-25.3,23S657.41,57.52,657.41,43.72Z"/></svg>